<svg xmlns="http://www.w3.org/2000/svg" width="152" height="32" viewBox="0 0 152 32" fill="none"><g clip-path="url(#clip0_20830_891)"><path d="M151.073 14.4696V11.8212H147.785V7.70409L147.674 7.73818L144.585 8.6833L144.524 8.7018V11.8214H139.649V10.0835C139.649 9.27429 139.829 8.65504 140.186 8.24206C140.54 7.83403 141.047 7.62659 141.693 7.62659C142.157 7.62659 142.638 7.73599 143.122 7.95174L143.243 8.00593V5.21688L143.186 5.19591C142.735 5.03363 142.121 4.9519 141.36 4.9519C140.4 4.9519 139.529 5.16065 138.769 5.57436C138.008 5.98865 137.41 6.58008 136.991 7.33205C136.573 8.08313 136.361 8.95061 136.361 9.91059V11.8212H134.071V14.4696H136.361V25.6265H139.649V14.4696H144.524V21.5596C144.524 24.4796 145.901 25.9593 148.618 25.9593C149.064 25.9593 149.534 25.907 150.014 25.8046C150.502 25.6994 150.834 25.5944 151.03 25.4822L151.073 25.4566V22.7838L150.94 22.8722C150.761 22.9911 150.539 23.0883 150.279 23.1605C150.017 23.2341 149.799 23.2709 149.629 23.2709C148.993 23.2709 148.522 23.0995 148.23 22.7611C147.935 22.4196 147.785 21.8225 147.785 20.9872V14.4696H151.073ZM126.73 23.2714C125.537 23.2714 124.596 22.8757 123.933 22.0964C123.266 21.3131 122.928 20.1964 122.928 18.7775C122.928 17.3137 123.266 16.1679 123.933 15.3708C124.597 14.579 125.528 14.177 126.703 14.177C127.843 14.177 128.75 14.5609 129.4 15.3185C130.054 16.0801 130.385 17.2166 130.385 18.6975C130.385 20.1967 130.073 21.3482 129.459 22.1185C128.848 22.883 127.93 23.2714 126.73 23.2714ZM126.876 11.4887C124.6 11.4887 122.791 12.1557 121.502 13.4713C120.214 14.787 119.561 16.6077 119.561 18.8834C119.561 21.0449 120.198 22.7835 121.456 24.0501C122.714 25.3172 124.425 25.959 126.543 25.959C128.75 25.959 130.522 25.2827 131.81 23.9489C133.099 22.6166 133.752 20.813 133.752 18.5905C133.752 16.3952 133.139 14.6436 131.931 13.3855C130.721 12.1267 129.02 11.4887 126.876 11.4887ZM114.26 11.4887C112.712 11.4887 111.431 11.8847 110.453 12.6657C109.468 13.4513 108.969 14.4816 108.969 15.7285C108.969 16.3766 109.077 16.9522 109.289 17.4405C109.502 17.9304 109.832 18.3618 110.271 18.7238C110.706 19.0829 111.379 19.459 112.269 19.8417C113.018 20.1498 113.576 20.4104 113.931 20.6158C114.278 20.8171 114.524 21.0194 114.663 21.2165C114.798 21.4094 114.866 21.6733 114.866 21.9991C114.866 22.9266 114.172 23.3779 112.743 23.3779C112.212 23.3779 111.608 23.2671 110.945 23.0489C110.288 22.834 109.667 22.5193 109.105 22.1158L108.968 22.0179V25.1829L109.019 25.2062C109.484 25.4209 110.07 25.602 110.761 25.7444C111.451 25.8871 112.078 25.9596 112.623 25.9596C114.303 25.9596 115.656 25.5616 116.644 24.776C117.637 23.985 118.141 22.9303 118.141 21.6404C118.141 20.7099 117.87 19.9119 117.335 19.2683C116.805 18.63 115.884 18.0439 114.599 17.5259C113.575 17.1151 112.92 16.7741 112.649 16.5123C112.388 16.2594 112.256 15.9018 112.256 15.4489C112.256 15.0474 112.419 14.7258 112.755 14.4653C113.093 14.2036 113.564 14.0704 114.154 14.0704C114.702 14.0704 115.262 14.1569 115.819 14.3265C116.376 14.4961 116.866 14.7232 117.274 15.001L117.408 15.0927V12.0904L117.357 12.0683C116.98 11.9067 116.483 11.7685 115.88 11.6563C115.279 11.5449 114.734 11.4887 114.26 11.4887ZM100.399 23.2714C99.2058 23.2714 98.2648 22.8757 97.6019 22.0964C96.9348 21.3131 96.5974 20.1967 96.5974 18.7775C96.5974 17.3137 96.9352 16.1679 97.6027 15.3708C98.2655 14.579 99.1971 14.177 100.372 14.177C101.512 14.177 102.419 14.5609 103.069 15.3185C103.723 16.0801 104.054 17.2166 104.054 18.6975C104.054 20.1967 103.742 21.3482 103.127 22.1185C102.517 22.883 101.599 23.2714 100.399 23.2714ZM100.545 11.4887C98.2682 11.4887 96.46 12.1557 95.1715 13.4713C93.8832 14.787 93.2296 16.6077 93.2296 18.8834C93.2296 21.0458 93.8676 22.7835 95.1254 24.0501C96.3831 25.3172 98.0946 25.959 100.212 25.959C102.419 25.959 104.191 25.2827 105.48 23.9489C106.768 22.6166 107.421 20.813 107.421 18.5905C107.421 16.3952 106.808 14.6436 105.599 13.3855C104.39 12.1267 102.689 11.4887 100.545 11.4887ZM88.2394 14.212V11.8212H84.9921V25.6262H88.2394V18.5644C88.2394 17.3636 88.5117 16.3771 89.0489 15.632C89.5793 14.8958 90.2861 14.5227 91.1491 14.5227C91.4416 14.5227 91.77 14.5709 92.1255 14.6664C92.4775 14.7612 92.7324 14.8642 92.8827 14.9726L93.0192 15.0715V11.7976L92.9666 11.7751C92.6642 11.6466 92.2364 11.5817 91.6951 11.5817C90.879 11.5817 90.1488 11.844 89.5232 12.3602C88.9742 12.814 88.5774 13.4362 88.274 14.212H88.2394ZM79.1767 11.4887C77.6869 11.4887 76.3581 11.8081 75.2278 12.4379C74.0952 13.0691 73.2193 13.9702 72.6234 15.116C72.03 16.2591 71.7288 17.5944 71.7288 19.0834C71.7288 20.3878 72.0209 21.5848 72.5982 22.6397C73.1757 23.6964 73.9933 24.5231 75.0281 25.0965C76.0615 25.6691 77.2559 25.9595 78.5783 25.9595C80.1216 25.9595 81.4392 25.6509 82.4956 25.0425L82.5382 25.018V22.0429L82.4018 22.1426C81.9232 22.4911 81.3885 22.7694 80.8131 22.9698C80.2391 23.1701 79.7159 23.2714 79.257 23.2714C77.9828 23.2714 76.9599 22.8727 76.2174 22.0866C75.4733 21.2995 75.096 20.1943 75.096 18.8036C75.096 17.4041 75.4895 16.2705 76.2649 15.4341C77.038 14.6001 78.0628 14.177 79.3106 14.177C80.3779 14.177 81.418 14.5385 82.402 15.2523L82.5382 15.3512V12.2164L82.4943 12.1917C82.124 11.9844 81.6189 11.8132 80.9919 11.6834C80.3676 11.5539 79.7569 11.4887 79.1767 11.4887ZM69.4923 11.8214H66.2449V25.6262H69.4923V11.8214ZM67.9018 5.94044C67.3674 5.94044 66.9012 6.12238 66.5182 6.48292C66.1337 6.84448 65.9386 7.29971 65.9386 7.83695C65.9386 8.36574 66.1313 8.81266 66.5123 9.1646C66.8907 9.51553 67.3583 9.69339 67.902 9.69339C68.4455 9.69339 68.9148 9.51553 69.2978 9.16519C69.6833 8.81266 69.8787 8.36588 69.8787 7.83695C69.8787 7.3185 69.6885 6.86793 69.3137 6.49749C68.9392 6.12777 68.464 5.94044 67.9018 5.94044ZM59.7995 10.8028V25.6262H63.1136V6.36303H58.5268L52.6967 20.6711L47.0389 6.36303H42.2654V25.626H45.3797V10.8014H45.4866L51.4611 25.6262H53.8114L59.6926 10.8028H59.7995Z" fill="#BCBCBF"></path><path d="M15.7615 15.2024H0.485107V-0.0739746H15.7615V15.2024Z" fill="#BCBCBF"></path><path d="M32.6284 15.2024H17.3523V-0.0739746H32.6284V15.2024Z" fill="#BCBCBF"></path><path d="M15.761 32.0753H0.485107V16.7991H15.761V32.0753Z" fill="#BCBCBF"></path><path d="M32.6284 32.0753H17.3523V16.7991H32.6284V32.0753Z" fill="#BCBCBF"></path></g><defs><clipPath id="clip0_20830_891"><rect width="150.588" height="32" fill="white" transform="translate(0.485107)"></rect></clipPath></defs></svg>