<svg xmlns="http://www.w3.org/2000/svg" width="169" height="32" viewBox="0 0 169 32" fill="none"><g clip-path="url(#clip0_20830_914)"><path d="M166.361 24.4992V24.0369H166.658C166.825 24.0369 167.048 24.0499 167.048 24.2467C167.048 24.4603 166.918 24.4992 166.732 24.4992H166.361ZM166.361 24.8242H166.565L167.011 25.6319H167.512L167.011 24.7908C167.271 24.7722 167.494 24.646 167.494 24.2913C167.494 23.8512 167.196 23.7101 166.677 23.7101H165.934V25.6319H166.361V24.8242ZM168.515 24.6738C168.515 23.5449 167.642 22.8894 166.658 22.8894C165.674 22.8894 164.801 23.5449 164.801 24.6738C164.801 25.8027 165.674 26.46 166.658 26.46C167.642 26.46 168.515 25.8027 168.515 24.6738ZM167.995 24.6738C167.995 25.4963 167.382 26.0478 166.658 26.0478V26.0423C165.934 26.0478 165.34 25.4963 165.34 24.6738C165.34 23.8512 165.934 23.3016 166.658 23.3016C167.382 23.3016 167.995 23.8512 167.995 24.6738Z" fill="#BCBCBF"></path><path d="M100.455 5.5674L100.457 25.8289H106.18V5.5674H100.455ZM55.4409 5.53955V25.8289H61.2137V10.4229L65.6868 10.4248C67.1685 10.4248 68.2231 10.7943 68.938 11.5556C69.8423 12.5193 70.2118 14.0753 70.2118 16.9199V25.8289H75.8045V14.6193C75.8045 6.61834 70.7057 5.53955 65.7165 5.53955H55.4409ZM109.669 5.56925V25.8289H118.949C123.894 25.8289 125.507 25.0063 127.255 23.1625C128.488 21.8683 129.284 19.0274 129.284 15.9209C129.284 13.0745 128.61 10.5325 127.433 8.95049C125.312 6.12073 122.258 5.56925 117.7 5.56925H109.669ZM115.345 9.97916H117.805C121.374 9.97916 123.682 11.5834 123.682 15.7408C123.682 19.9019 121.374 21.5044 117.805 21.5044H115.345V9.97916ZM92.2056 5.56925L87.4299 21.625L82.8529 5.56925H76.6772L83.2113 25.8289H91.4592L98.0453 5.56925H92.2056ZM131.947 25.8289H137.669V5.56925H131.947V25.8289ZM147.988 5.57483L139.998 25.8214H145.641L146.905 22.2434H156.353L157.56 25.8214H163.687L155.628 5.57483H147.988ZM151.703 9.26987L155.164 18.7544H148.127L151.703 9.26987Z" fill="#BCBCBF"></path><path d="M18.7939 9.54896V6.6578C19.074 6.63795 19.3573 6.62252 19.6462 6.61369C27.5522 6.3656 32.738 13.4071 32.738 13.4071C32.738 13.4071 27.1365 21.1874 21.1304 21.1874C20.2659 21.1874 19.4908 21.0474 18.7939 20.8136V12.0487C21.8714 12.4202 22.49 13.7798 24.3402 16.8639L28.4553 13.3939C28.4553 13.3939 25.4517 9.45412 20.3883 9.45412C19.837 9.45412 19.3099 9.49271 18.7939 9.54896ZM18.7939 0V4.31798C19.0773 4.29483 19.3617 4.27719 19.6462 4.26726C30.6407 3.89677 37.8025 13.2825 37.8025 13.2825C37.8025 13.2825 29.5756 23.2869 21.0047 23.2869C20.2196 23.2869 19.4841 23.2141 18.7939 23.0917V25.7612C19.3838 25.8362 19.9969 25.8803 20.6353 25.8803C28.6108 25.8803 34.3787 21.8071 39.9647 16.9863C40.8899 17.7284 44.6808 19.5312 45.4615 20.3218C40.15 24.7677 27.7739 28.3513 20.7577 28.3513C20.0818 28.3513 19.4312 28.3105 18.7939 28.2488V32H49.1079V0H18.7939ZM18.7939 20.8136V23.0917C11.4161 21.7773 9.36844 14.1084 9.36844 14.1084C9.36844 14.1084 12.9112 10.1841 18.7939 9.54896V12.0487C18.7884 12.0487 18.7862 12.0476 18.7818 12.0476C15.6954 11.6771 13.2828 14.5605 13.2828 14.5605C13.2828 14.5605 14.6347 19.4166 18.7939 20.8136ZM5.6911 13.7765C5.6911 13.7765 10.0631 7.32491 18.7939 6.6578V4.31798C9.12364 5.09315 0.750122 13.2825 0.750122 13.2825C0.750122 13.2825 5.49262 26.994 18.7939 28.2488V25.7612C9.03322 24.5329 5.6911 13.7765 5.6911 13.7765Z" fill="#BCBCBF"></path></g><defs><clipPath id="clip0_20830_914"><rect width="167.765" height="32" fill="white" transform="translate(0.750122)"></rect></clipPath></defs></svg>